<?xml version="1.0" standalone="no"?>
<!DOCTYPE svg PUBLIC "-//W3C//DTD SVG 1.1//EN" "http://www.w3.org/Graphics/SVG/1.1/DTD/svg11.dtd">
<svg width="800" height="600" version="1.1" xmlns="http://www.w3.org/2000/svg">
<rect width="800" height="600" x="0" y="0" style="fill:rgb(238,238,238);stroke:none"/>
<rect width="800" height="600" x="0" y="0" style="fill:rgb(255,255,255);stroke:none"/>
<text x="2" y="566" fill="rgb(0,0,0)" font-family="Arial" font-size="12">0</text>
<text x="2" y="465" fill="rgb(0,0,0)" font-family="Arial" font-size="12">500000</text>
<text x="2" y="363" fill="rgb(0,0,0)" font-family="Arial" font-size="12">1000000</text>
<text x="2" y="262" fill="rgb(0,0,0)" font-family="Arial" font-size="12">1500000</text>
<text x="2" y="160" fill="rgb(0,0,0)" font-family="Arial" font-size="12">2000000</text>
<text x="2" y="59" fill="rgb(0,0,0)" font-family="Arial" font-size="12">2500000</text>
<text x="286" y="30" fill="rgb(0,0,0)" font-family="Arial" font-size="12">Quality score distribution over all sequences</text>
<line x1="61" y1="560" x2="790" y2="560" stroke="rgb(0,0,0)" stroke-width="1"/>
<line x1="61" y1="560" x2="61" y2="40" stroke="rgb(0,0,0)" stroke-width="1"/>
<text x="281" y="595" fill="rgb(0,0,0)" font-family="Arial" font-size="12">Mean Sequence Quality (Phred Score)</text>
<text x="67" y="575" fill="rgb(0,0,0)" font-family="Arial" font-size="12">2</text>
<rect width="21" height="520" x="82" y="40" style="fill:rgb(230,230,230);stroke:none"/>
<text x="88" y="575" fill="rgb(0,0,0)" font-family="Arial" font-size="12">3</text>
<text x="109" y="575" fill="rgb(0,0,0)" font-family="Arial" font-size="12">4</text>
<rect width="21" height="520" x="124" y="40" style="fill:rgb(230,230,230);stroke:none"/>
<text x="130" y="575" fill="rgb(0,0,0)" font-family="Arial" font-size="12">5</text>
<text x="151" y="575" fill="rgb(0,0,0)" font-family="Arial" font-size="12">6</text>
<rect width="21" height="520" x="166" y="40" style="fill:rgb(230,230,230);stroke:none"/>
<text x="172" y="575" fill="rgb(0,0,0)" font-family="Arial" font-size="12">7</text>
<text x="193" y="575" fill="rgb(0,0,0)" font-family="Arial" font-size="12">8</text>
<rect width="21" height="520" x="208" y="40" style="fill:rgb(230,230,230);stroke:none"/>
<text x="214" y="575" fill="rgb(0,0,0)" font-family="Arial" font-size="12">9</text>
<text x="231" y="575" fill="rgb(0,0,0)" font-family="Arial" font-size="12">10</text>
<rect width="21" height="520" x="250" y="40" style="fill:rgb(230,230,230);stroke:none"/>
<text x="273" y="575" fill="rgb(0,0,0)" font-family="Arial" font-size="12">12</text>
<rect width="21" height="520" x="292" y="40" style="fill:rgb(230,230,230);stroke:none"/>
<text x="315" y="575" fill="rgb(0,0,0)" font-family="Arial" font-size="12">14</text>
<rect width="21" height="520" x="334" y="40" style="fill:rgb(230,230,230);stroke:none"/>
<text x="357" y="575" fill="rgb(0,0,0)" font-family="Arial" font-size="12">16</text>
<rect width="21" height="520" x="376" y="40" style="fill:rgb(230,230,230);stroke:none"/>
<text x="399" y="575" fill="rgb(0,0,0)" font-family="Arial" font-size="12">18</text>
<rect width="21" height="520" x="418" y="40" style="fill:rgb(230,230,230);stroke:none"/>
<text x="441" y="575" fill="rgb(0,0,0)" font-family="Arial" font-size="12">20</text>
<rect width="21" height="520" x="460" y="40" style="fill:rgb(230,230,230);stroke:none"/>
<text x="483" y="575" fill="rgb(0,0,0)" font-family="Arial" font-size="12">22</text>
<rect width="21" height="520" x="502" y="40" style="fill:rgb(230,230,230);stroke:none"/>
<text x="525" y="575" fill="rgb(0,0,0)" font-family="Arial" font-size="12">24</text>
<rect width="21" height="520" x="544" y="40" style="fill:rgb(230,230,230);stroke:none"/>
<text x="567" y="575" fill="rgb(0,0,0)" font-family="Arial" font-size="12">26</text>
<rect width="21" height="520" x="586" y="40" style="fill:rgb(230,230,230);stroke:none"/>
<text x="609" y="575" fill="rgb(0,0,0)" font-family="Arial" font-size="12">28</text>
<rect width="21" height="520" x="628" y="40" style="fill:rgb(230,230,230);stroke:none"/>
<text x="651" y="575" fill="rgb(0,0,0)" font-family="Arial" font-size="12">30</text>
<rect width="21" height="520" x="670" y="40" style="fill:rgb(230,230,230);stroke:none"/>
<text x="693" y="575" fill="rgb(0,0,0)" font-family="Arial" font-size="12">32</text>
<rect width="21" height="520" x="712" y="40" style="fill:rgb(230,230,230);stroke:none"/>
<text x="735" y="575" fill="rgb(0,0,0)" font-family="Arial" font-size="12">34</text>
<rect width="21" height="520" x="754" y="40" style="fill:rgb(230,230,230);stroke:none"/>
<line x1="61" y1="560" x2="790" y2="560" stroke="rgb(180,180,180)" stroke-width="1"/>
<line x1="61" y1="459" x2="790" y2="459" stroke="rgb(180,180,180)" stroke-width="1"/>
<line x1="61" y1="357" x2="790" y2="357" stroke="rgb(180,180,180)" stroke-width="1"/>
<line x1="61" y1="256" x2="790" y2="256" stroke="rgb(180,180,180)" stroke-width="1"/>
<line x1="61" y1="154" x2="790" y2="154" stroke="rgb(180,180,180)" stroke-width="1"/>
<line x1="61" y1="53" x2="790" y2="53" stroke="rgb(180,180,180)" stroke-width="1"/>
<line x1="71" y1="560" x2="92" y2="560" stroke="rgb(136,34,85)" stroke-width="1"/>
<line x1="92" y1="560" x2="113" y2="560" stroke="rgb(136,34,85)" stroke-width="1"/>
<line x1="113" y1="560" x2="134" y2="560" stroke="rgb(136,34,85)" stroke-width="1"/>
<line x1="134" y1="560" x2="155" y2="560" stroke="rgb(136,34,85)" stroke-width="1"/>
<line x1="155" y1="560" x2="176" y2="560" stroke="rgb(136,34,85)" stroke-width="1"/>
<line x1="176" y1="560" x2="197" y2="560" stroke="rgb(136,34,85)" stroke-width="1"/>
<line x1="197" y1="560" x2="218" y2="560" stroke="rgb(136,34,85)" stroke-width="1"/>
<line x1="218" y1="560" x2="239" y2="560" stroke="rgb(136,34,85)" stroke-width="1"/>
<line x1="239" y1="560" x2="260" y2="560" stroke="rgb(136,34,85)" stroke-width="1"/>
<line x1="260" y1="560" x2="281" y2="560" stroke="rgb(136,34,85)" stroke-width="1"/>
<line x1="281" y1="560" x2="302" y2="560" stroke="rgb(136,34,85)" stroke-width="1"/>
<line x1="302" y1="560" x2="323" y2="560" stroke="rgb(136,34,85)" stroke-width="1"/>
<line x1="323" y1="560" x2="344" y2="560" stroke="rgb(136,34,85)" stroke-width="1"/>
<line x1="344" y1="560" x2="365" y2="560" stroke="rgb(136,34,85)" stroke-width="1"/>
<line x1="365" y1="560" x2="386" y2="560" stroke="rgb(136,34,85)" stroke-width="1"/>
<line x1="386" y1="560" x2="407" y2="560" stroke="rgb(136,34,85)" stroke-width="1"/>
<line x1="407" y1="560" x2="428" y2="560" stroke="rgb(136,34,85)" stroke-width="1"/>
<line x1="428" y1="560" x2="449" y2="560" stroke="rgb(136,34,85)" stroke-width="1"/>
<line x1="449" y1="560" x2="470" y2="560" stroke="rgb(136,34,85)" stroke-width="1"/>
<line x1="470" y1="560" x2="491" y2="559" stroke="rgb(136,34,85)" stroke-width="1"/>
<line x1="491" y1="559" x2="512" y2="558" stroke="rgb(136,34,85)" stroke-width="1"/>
<line x1="512" y1="558" x2="533" y2="557" stroke="rgb(136,34,85)" stroke-width="1"/>
<line x1="533" y1="557" x2="554" y2="556" stroke="rgb(136,34,85)" stroke-width="1"/>
<line x1="554" y1="556" x2="575" y2="554" stroke="rgb(136,34,85)" stroke-width="1"/>
<line x1="575" y1="554" x2="596" y2="551" stroke="rgb(136,34,85)" stroke-width="1"/>
<line x1="596" y1="551" x2="617" y2="547" stroke="rgb(136,34,85)" stroke-width="1"/>
<line x1="617" y1="547" x2="638" y2="544" stroke="rgb(136,34,85)" stroke-width="1"/>
<line x1="638" y1="544" x2="659" y2="542" stroke="rgb(136,34,85)" stroke-width="1"/>
<line x1="659" y1="542" x2="680" y2="539" stroke="rgb(136,34,85)" stroke-width="1"/>
<line x1="680" y1="539" x2="701" y2="534" stroke="rgb(136,34,85)" stroke-width="1"/>
<line x1="701" y1="534" x2="722" y2="521" stroke="rgb(136,34,85)" stroke-width="1"/>
<line x1="722" y1="521" x2="743" y2="474" stroke="rgb(136,34,85)" stroke-width="1"/>
<line x1="743" y1="474" x2="764" y2="40" stroke="rgb(136,34,85)" stroke-width="1"/>
<rect width="183" height="23" x="607" y="40" style="fill:rgb(255,255,255);stroke:none"/>
<rect width="183" height="23" x="607" y="40" rx="0" ry="0" style="fill:none;stroke-width:1;stroke:rgb(192,192,192)"/>
<text x="610" y="55" fill="rgb(136,34,85)" font-family="Arial" font-size="12" font-weight="bold">Average Quality per read</text>
</svg>
