<?xml version="1.0" standalone="no"?>
<!DOCTYPE svg PUBLIC "-//W3C//DTD SVG 1.1//EN" "http://www.w3.org/Graphics/SVG/1.1/DTD/svg11.dtd">
<svg width="800" height="600" version="1.1" xmlns="http://www.w3.org/2000/svg">
<rect width="800" height="600" x="0" y="0" style="fill:rgb(238,238,238);stroke:none"/>
<rect width="800" height="600" x="0" y="0" style="fill:rgb(255,255,255);stroke:none"/>
<text x="2" y="566" fill="rgb(0,0,0)" font-family="Arial" font-size="12">0</text>
<text x="2" y="514" fill="rgb(0,0,0)" font-family="Arial" font-size="12">10</text>
<text x="2" y="462" fill="rgb(0,0,0)" font-family="Arial" font-size="12">20</text>
<text x="2" y="410" fill="rgb(0,0,0)" font-family="Arial" font-size="12">30</text>
<text x="2" y="358" fill="rgb(0,0,0)" font-family="Arial" font-size="12">40</text>
<text x="2" y="306" fill="rgb(0,0,0)" font-family="Arial" font-size="12">50</text>
<text x="2" y="254" fill="rgb(0,0,0)" font-family="Arial" font-size="12">60</text>
<text x="2" y="202" fill="rgb(0,0,0)" font-family="Arial" font-size="12">70</text>
<text x="2" y="150" fill="rgb(0,0,0)" font-family="Arial" font-size="12">80</text>
<text x="2" y="98" fill="rgb(0,0,0)" font-family="Arial" font-size="12">90</text>
<text x="2" y="46" fill="rgb(0,0,0)" font-family="Arial" font-size="12">100</text>
<text x="325" y="30" fill="rgb(0,0,0)" font-family="Arial" font-size="12">N content across all bases</text>
<line x1="29" y1="560" x2="790" y2="560" stroke="rgb(0,0,0)" stroke-width="1"/>
<line x1="29" y1="560" x2="29" y2="40" stroke="rgb(0,0,0)" stroke-width="1"/>
<text x="336" y="595" fill="rgb(0,0,0)" font-family="Arial" font-size="12">Position in read (bp)</text>
<text x="33" y="575" fill="rgb(0,0,0)" font-family="Arial" font-size="12">1</text>
<rect width="17" height="520" x="46" y="40" style="fill:rgb(230,230,230);stroke:none"/>
<text x="50" y="575" fill="rgb(0,0,0)" font-family="Arial" font-size="12">2</text>
<text x="67" y="575" fill="rgb(0,0,0)" font-family="Arial" font-size="12">3</text>
<rect width="17" height="520" x="80" y="40" style="fill:rgb(230,230,230);stroke:none"/>
<text x="84" y="575" fill="rgb(0,0,0)" font-family="Arial" font-size="12">4</text>
<text x="101" y="575" fill="rgb(0,0,0)" font-family="Arial" font-size="12">5</text>
<rect width="17" height="520" x="114" y="40" style="fill:rgb(230,230,230);stroke:none"/>
<text x="118" y="575" fill="rgb(0,0,0)" font-family="Arial" font-size="12">6</text>
<text x="135" y="575" fill="rgb(0,0,0)" font-family="Arial" font-size="12">7</text>
<rect width="17" height="520" x="148" y="40" style="fill:rgb(230,230,230);stroke:none"/>
<text x="152" y="575" fill="rgb(0,0,0)" font-family="Arial" font-size="12">8</text>
<text x="169" y="575" fill="rgb(0,0,0)" font-family="Arial" font-size="12">9</text>
<rect width="17" height="520" x="182" y="40" style="fill:rgb(230,230,230);stroke:none"/>
<text x="189" y="575" fill="rgb(0,0,0)" font-family="Arial" font-size="12">12-13</text>
<rect width="17" height="520" x="216" y="40" style="fill:rgb(230,230,230);stroke:none"/>
<rect width="17" height="520" x="250" y="40" style="fill:rgb(230,230,230);stroke:none"/>
<text x="240" y="575" fill="rgb(0,0,0)" font-family="Arial" font-size="12">18-19</text>
<rect width="17" height="520" x="284" y="40" style="fill:rgb(230,230,230);stroke:none"/>
<text x="291" y="575" fill="rgb(0,0,0)" font-family="Arial" font-size="12">24-25</text>
<rect width="17" height="520" x="318" y="40" style="fill:rgb(230,230,230);stroke:none"/>
<rect width="17" height="520" x="352" y="40" style="fill:rgb(230,230,230);stroke:none"/>
<text x="342" y="575" fill="rgb(0,0,0)" font-family="Arial" font-size="12">30-31</text>
<rect width="17" height="520" x="386" y="40" style="fill:rgb(230,230,230);stroke:none"/>
<text x="393" y="575" fill="rgb(0,0,0)" font-family="Arial" font-size="12">36-37</text>
<rect width="17" height="520" x="420" y="40" style="fill:rgb(230,230,230);stroke:none"/>
<rect width="17" height="520" x="454" y="40" style="fill:rgb(230,230,230);stroke:none"/>
<text x="444" y="575" fill="rgb(0,0,0)" font-family="Arial" font-size="12">42-43</text>
<rect width="17" height="520" x="488" y="40" style="fill:rgb(230,230,230);stroke:none"/>
<text x="495" y="575" fill="rgb(0,0,0)" font-family="Arial" font-size="12">48-49</text>
<rect width="17" height="520" x="522" y="40" style="fill:rgb(230,230,230);stroke:none"/>
<rect width="17" height="520" x="556" y="40" style="fill:rgb(230,230,230);stroke:none"/>
<text x="546" y="575" fill="rgb(0,0,0)" font-family="Arial" font-size="12">54-55</text>
<rect width="17" height="520" x="590" y="40" style="fill:rgb(230,230,230);stroke:none"/>
<text x="597" y="575" fill="rgb(0,0,0)" font-family="Arial" font-size="12">60-61</text>
<rect width="17" height="520" x="624" y="40" style="fill:rgb(230,230,230);stroke:none"/>
<rect width="17" height="520" x="658" y="40" style="fill:rgb(230,230,230);stroke:none"/>
<text x="648" y="575" fill="rgb(0,0,0)" font-family="Arial" font-size="12">66-67</text>
<rect width="17" height="520" x="692" y="40" style="fill:rgb(230,230,230);stroke:none"/>
<text x="699" y="575" fill="rgb(0,0,0)" font-family="Arial" font-size="12">72-73</text>
<rect width="17" height="520" x="726" y="40" style="fill:rgb(230,230,230);stroke:none"/>
<text x="743" y="575" fill="rgb(0,0,0)" font-family="Arial" font-size="12">76</text>
<line x1="29" y1="560" x2="790" y2="560" stroke="rgb(180,180,180)" stroke-width="1"/>
<line x1="29" y1="508" x2="790" y2="508" stroke="rgb(180,180,180)" stroke-width="1"/>
<line x1="29" y1="456" x2="790" y2="456" stroke="rgb(180,180,180)" stroke-width="1"/>
<line x1="29" y1="404" x2="790" y2="404" stroke="rgb(180,180,180)" stroke-width="1"/>
<line x1="29" y1="352" x2="790" y2="352" stroke="rgb(180,180,180)" stroke-width="1"/>
<line x1="29" y1="300" x2="790" y2="300" stroke="rgb(180,180,180)" stroke-width="1"/>
<line x1="29" y1="248" x2="790" y2="248" stroke="rgb(180,180,180)" stroke-width="1"/>
<line x1="29" y1="196" x2="790" y2="196" stroke="rgb(180,180,180)" stroke-width="1"/>
<line x1="29" y1="144" x2="790" y2="144" stroke="rgb(180,180,180)" stroke-width="1"/>
<line x1="29" y1="92" x2="790" y2="92" stroke="rgb(180,180,180)" stroke-width="1"/>
<line x1="29" y1="40" x2="790" y2="40" stroke="rgb(180,180,180)" stroke-width="1"/>
<line x1="37" y1="560" x2="54" y2="560" stroke="rgb(136,34,85)" stroke-width="1"/>
<line x1="54" y1="560" x2="71" y2="560" stroke="rgb(136,34,85)" stroke-width="1"/>
<line x1="71" y1="560" x2="88" y2="560" stroke="rgb(136,34,85)" stroke-width="1"/>
<line x1="88" y1="560" x2="105" y2="560" stroke="rgb(136,34,85)" stroke-width="1"/>
<line x1="105" y1="560" x2="122" y2="560" stroke="rgb(136,34,85)" stroke-width="1"/>
<line x1="122" y1="560" x2="139" y2="560" stroke="rgb(136,34,85)" stroke-width="1"/>
<line x1="139" y1="560" x2="156" y2="560" stroke="rgb(136,34,85)" stroke-width="1"/>
<line x1="156" y1="560" x2="173" y2="560" stroke="rgb(136,34,85)" stroke-width="1"/>
<line x1="173" y1="560" x2="190" y2="560" stroke="rgb(136,34,85)" stroke-width="1"/>
<line x1="190" y1="560" x2="207" y2="560" stroke="rgb(136,34,85)" stroke-width="1"/>
<line x1="207" y1="560" x2="224" y2="560" stroke="rgb(136,34,85)" stroke-width="1"/>
<line x1="224" y1="560" x2="241" y2="560" stroke="rgb(136,34,85)" stroke-width="1"/>
<line x1="241" y1="560" x2="258" y2="560" stroke="rgb(136,34,85)" stroke-width="1"/>
<line x1="258" y1="560" x2="275" y2="560" stroke="rgb(136,34,85)" stroke-width="1"/>
<line x1="275" y1="560" x2="292" y2="560" stroke="rgb(136,34,85)" stroke-width="1"/>
<line x1="292" y1="560" x2="309" y2="560" stroke="rgb(136,34,85)" stroke-width="1"/>
<line x1="309" y1="560" x2="326" y2="560" stroke="rgb(136,34,85)" stroke-width="1"/>
<line x1="326" y1="560" x2="343" y2="560" stroke="rgb(136,34,85)" stroke-width="1"/>
<line x1="343" y1="560" x2="360" y2="560" stroke="rgb(136,34,85)" stroke-width="1"/>
<line x1="360" y1="560" x2="377" y2="560" stroke="rgb(136,34,85)" stroke-width="1"/>
<line x1="377" y1="560" x2="394" y2="560" stroke="rgb(136,34,85)" stroke-width="1"/>
<line x1="394" y1="560" x2="411" y2="560" stroke="rgb(136,34,85)" stroke-width="1"/>
<line x1="411" y1="560" x2="428" y2="560" stroke="rgb(136,34,85)" stroke-width="1"/>
<line x1="428" y1="560" x2="445" y2="560" stroke="rgb(136,34,85)" stroke-width="1"/>
<line x1="445" y1="560" x2="462" y2="560" stroke="rgb(136,34,85)" stroke-width="1"/>
<line x1="462" y1="560" x2="479" y2="560" stroke="rgb(136,34,85)" stroke-width="1"/>
<line x1="479" y1="560" x2="496" y2="560" stroke="rgb(136,34,85)" stroke-width="1"/>
<line x1="496" y1="560" x2="513" y2="560" stroke="rgb(136,34,85)" stroke-width="1"/>
<line x1="513" y1="560" x2="530" y2="560" stroke="rgb(136,34,85)" stroke-width="1"/>
<line x1="530" y1="560" x2="547" y2="560" stroke="rgb(136,34,85)" stroke-width="1"/>
<line x1="547" y1="560" x2="564" y2="560" stroke="rgb(136,34,85)" stroke-width="1"/>
<line x1="564" y1="560" x2="581" y2="560" stroke="rgb(136,34,85)" stroke-width="1"/>
<line x1="581" y1="560" x2="598" y2="560" stroke="rgb(136,34,85)" stroke-width="1"/>
<line x1="598" y1="560" x2="615" y2="560" stroke="rgb(136,34,85)" stroke-width="1"/>
<line x1="615" y1="560" x2="632" y2="560" stroke="rgb(136,34,85)" stroke-width="1"/>
<line x1="632" y1="560" x2="649" y2="560" stroke="rgb(136,34,85)" stroke-width="1"/>
<line x1="649" y1="560" x2="666" y2="560" stroke="rgb(136,34,85)" stroke-width="1"/>
<line x1="666" y1="560" x2="683" y2="560" stroke="rgb(136,34,85)" stroke-width="1"/>
<line x1="683" y1="560" x2="700" y2="560" stroke="rgb(136,34,85)" stroke-width="1"/>
<line x1="700" y1="560" x2="717" y2="560" stroke="rgb(136,34,85)" stroke-width="1"/>
<line x1="717" y1="560" x2="734" y2="560" stroke="rgb(136,34,85)" stroke-width="1"/>
<line x1="734" y1="560" x2="751" y2="560" stroke="rgb(136,34,85)" stroke-width="1"/>
<rect width="28" height="23" x="762" y="40" style="fill:rgb(255,255,255);stroke:none"/>
<rect width="28" height="23" x="762" y="40" rx="0" ry="0" style="fill:none;stroke-width:1;stroke:rgb(192,192,192)"/>
<text x="765" y="55" fill="rgb(136,34,85)" font-family="Arial" font-size="12" font-weight="bold">%N</text>
</svg>
