<?xml version="1.0" standalone="no"?>
<!DOCTYPE svg PUBLIC "-//W3C//DTD SVG 1.1//EN" "http://www.w3.org/Graphics/SVG/1.1/DTD/svg11.dtd">
<svg width="800" height="600" version="1.1" xmlns="http://www.w3.org/2000/svg">
<rect width="800" height="600" x="0" y="0" style="fill:rgb(238,238,238);stroke:none"/>
<rect width="800" height="600" x="0" y="0" style="fill:rgb(255,255,255);stroke:none"/>
<text x="2" y="566" fill="rgb(0,0,0)" font-family="Arial" font-size="12">0</text>
<text x="2" y="514" fill="rgb(0,0,0)" font-family="Arial" font-size="12">250000</text>
<text x="2" y="462" fill="rgb(0,0,0)" font-family="Arial" font-size="12">500000</text>
<text x="2" y="409" fill="rgb(0,0,0)" font-family="Arial" font-size="12">750000</text>
<text x="2" y="357" fill="rgb(0,0,0)" font-family="Arial" font-size="12">1000000</text>
<text x="2" y="304" fill="rgb(0,0,0)" font-family="Arial" font-size="12">1250000</text>
<text x="2" y="252" fill="rgb(0,0,0)" font-family="Arial" font-size="12">1500000</text>
<text x="2" y="200" fill="rgb(0,0,0)" font-family="Arial" font-size="12">1750000</text>
<text x="2" y="147" fill="rgb(0,0,0)" font-family="Arial" font-size="12">2000000</text>
<text x="2" y="95" fill="rgb(0,0,0)" font-family="Arial" font-size="12">2250000</text>
<text x="262" y="30" fill="rgb(0,0,0)" font-family="Arial" font-size="12">Distribution of sequence lengths over all sequences</text>
<line x1="61" y1="560" x2="790" y2="560" stroke="rgb(0,0,0)" stroke-width="1"/>
<line x1="61" y1="560" x2="61" y2="40" stroke="rgb(0,0,0)" stroke-width="1"/>
<text x="330" y="595" fill="rgb(0,0,0)" font-family="Arial" font-size="12">Sequence Length (bp)</text>
<text x="61" y="575" fill="rgb(0,0,0)" font-family="Arial" font-size="12">34</text>
<rect width="16" height="520" x="77" y="40" style="fill:rgb(230,230,230);stroke:none"/>
<text x="93" y="575" fill="rgb(0,0,0)" font-family="Arial" font-size="12">36</text>
<rect width="16" height="520" x="109" y="40" style="fill:rgb(230,230,230);stroke:none"/>
<text x="125" y="575" fill="rgb(0,0,0)" font-family="Arial" font-size="12">38</text>
<rect width="16" height="520" x="141" y="40" style="fill:rgb(230,230,230);stroke:none"/>
<text x="157" y="575" fill="rgb(0,0,0)" font-family="Arial" font-size="12">40</text>
<rect width="16" height="520" x="173" y="40" style="fill:rgb(230,230,230);stroke:none"/>
<text x="189" y="575" fill="rgb(0,0,0)" font-family="Arial" font-size="12">42</text>
<rect width="16" height="520" x="205" y="40" style="fill:rgb(230,230,230);stroke:none"/>
<text x="221" y="575" fill="rgb(0,0,0)" font-family="Arial" font-size="12">44</text>
<rect width="16" height="520" x="237" y="40" style="fill:rgb(230,230,230);stroke:none"/>
<text x="253" y="575" fill="rgb(0,0,0)" font-family="Arial" font-size="12">46</text>
<rect width="16" height="520" x="269" y="40" style="fill:rgb(230,230,230);stroke:none"/>
<text x="285" y="575" fill="rgb(0,0,0)" font-family="Arial" font-size="12">48</text>
<rect width="16" height="520" x="301" y="40" style="fill:rgb(230,230,230);stroke:none"/>
<text x="317" y="575" fill="rgb(0,0,0)" font-family="Arial" font-size="12">50</text>
<rect width="16" height="520" x="333" y="40" style="fill:rgb(230,230,230);stroke:none"/>
<text x="349" y="575" fill="rgb(0,0,0)" font-family="Arial" font-size="12">52</text>
<rect width="16" height="520" x="365" y="40" style="fill:rgb(230,230,230);stroke:none"/>
<text x="381" y="575" fill="rgb(0,0,0)" font-family="Arial" font-size="12">54</text>
<rect width="16" height="520" x="397" y="40" style="fill:rgb(230,230,230);stroke:none"/>
<text x="413" y="575" fill="rgb(0,0,0)" font-family="Arial" font-size="12">56</text>
<rect width="16" height="520" x="429" y="40" style="fill:rgb(230,230,230);stroke:none"/>
<text x="445" y="575" fill="rgb(0,0,0)" font-family="Arial" font-size="12">58</text>
<rect width="16" height="520" x="461" y="40" style="fill:rgb(230,230,230);stroke:none"/>
<text x="477" y="575" fill="rgb(0,0,0)" font-family="Arial" font-size="12">60</text>
<rect width="16" height="520" x="493" y="40" style="fill:rgb(230,230,230);stroke:none"/>
<text x="509" y="575" fill="rgb(0,0,0)" font-family="Arial" font-size="12">62</text>
<rect width="16" height="520" x="525" y="40" style="fill:rgb(230,230,230);stroke:none"/>
<text x="541" y="575" fill="rgb(0,0,0)" font-family="Arial" font-size="12">64</text>
<rect width="16" height="520" x="557" y="40" style="fill:rgb(230,230,230);stroke:none"/>
<text x="573" y="575" fill="rgb(0,0,0)" font-family="Arial" font-size="12">66</text>
<rect width="16" height="520" x="589" y="40" style="fill:rgb(230,230,230);stroke:none"/>
<text x="605" y="575" fill="rgb(0,0,0)" font-family="Arial" font-size="12">68</text>
<rect width="16" height="520" x="621" y="40" style="fill:rgb(230,230,230);stroke:none"/>
<text x="637" y="575" fill="rgb(0,0,0)" font-family="Arial" font-size="12">70</text>
<rect width="16" height="520" x="653" y="40" style="fill:rgb(230,230,230);stroke:none"/>
<text x="669" y="575" fill="rgb(0,0,0)" font-family="Arial" font-size="12">72</text>
<rect width="16" height="520" x="685" y="40" style="fill:rgb(230,230,230);stroke:none"/>
<text x="701" y="575" fill="rgb(0,0,0)" font-family="Arial" font-size="12">74</text>
<rect width="16" height="520" x="717" y="40" style="fill:rgb(230,230,230);stroke:none"/>
<text x="733" y="575" fill="rgb(0,0,0)" font-family="Arial" font-size="12">76</text>
<rect width="16" height="520" x="749" y="40" style="fill:rgb(230,230,230);stroke:none"/>
<line x1="61" y1="560" x2="790" y2="560" stroke="rgb(180,180,180)" stroke-width="1"/>
<line x1="61" y1="508" x2="790" y2="508" stroke="rgb(180,180,180)" stroke-width="1"/>
<line x1="61" y1="456" x2="790" y2="456" stroke="rgb(180,180,180)" stroke-width="1"/>
<line x1="61" y1="403" x2="790" y2="403" stroke="rgb(180,180,180)" stroke-width="1"/>
<line x1="61" y1="351" x2="790" y2="351" stroke="rgb(180,180,180)" stroke-width="1"/>
<line x1="61" y1="298" x2="790" y2="298" stroke="rgb(180,180,180)" stroke-width="1"/>
<line x1="61" y1="246" x2="790" y2="246" stroke="rgb(180,180,180)" stroke-width="1"/>
<line x1="61" y1="194" x2="790" y2="194" stroke="rgb(180,180,180)" stroke-width="1"/>
<line x1="61" y1="141" x2="790" y2="141" stroke="rgb(180,180,180)" stroke-width="1"/>
<line x1="61" y1="89" x2="790" y2="89" stroke="rgb(180,180,180)" stroke-width="1"/>
<line x1="69" y1="560" x2="85" y2="560" stroke="rgb(136,34,85)" stroke-width="1"/>
<line x1="85" y1="560" x2="101" y2="560" stroke="rgb(136,34,85)" stroke-width="1"/>
<line x1="101" y1="560" x2="117" y2="560" stroke="rgb(136,34,85)" stroke-width="1"/>
<line x1="117" y1="560" x2="133" y2="560" stroke="rgb(136,34,85)" stroke-width="1"/>
<line x1="133" y1="560" x2="149" y2="560" stroke="rgb(136,34,85)" stroke-width="1"/>
<line x1="149" y1="560" x2="165" y2="560" stroke="rgb(136,34,85)" stroke-width="1"/>
<line x1="165" y1="560" x2="181" y2="560" stroke="rgb(136,34,85)" stroke-width="1"/>
<line x1="181" y1="560" x2="197" y2="560" stroke="rgb(136,34,85)" stroke-width="1"/>
<line x1="197" y1="560" x2="213" y2="560" stroke="rgb(136,34,85)" stroke-width="1"/>
<line x1="213" y1="560" x2="229" y2="560" stroke="rgb(136,34,85)" stroke-width="1"/>
<line x1="229" y1="560" x2="245" y2="560" stroke="rgb(136,34,85)" stroke-width="1"/>
<line x1="245" y1="560" x2="261" y2="560" stroke="rgb(136,34,85)" stroke-width="1"/>
<line x1="261" y1="560" x2="277" y2="560" stroke="rgb(136,34,85)" stroke-width="1"/>
<line x1="277" y1="560" x2="293" y2="560" stroke="rgb(136,34,85)" stroke-width="1"/>
<line x1="293" y1="560" x2="309" y2="560" stroke="rgb(136,34,85)" stroke-width="1"/>
<line x1="309" y1="560" x2="325" y2="560" stroke="rgb(136,34,85)" stroke-width="1"/>
<line x1="325" y1="560" x2="341" y2="560" stroke="rgb(136,34,85)" stroke-width="1"/>
<line x1="341" y1="560" x2="357" y2="560" stroke="rgb(136,34,85)" stroke-width="1"/>
<line x1="357" y1="560" x2="373" y2="560" stroke="rgb(136,34,85)" stroke-width="1"/>
<line x1="373" y1="560" x2="389" y2="560" stroke="rgb(136,34,85)" stroke-width="1"/>
<line x1="389" y1="560" x2="405" y2="560" stroke="rgb(136,34,85)" stroke-width="1"/>
<line x1="405" y1="560" x2="421" y2="560" stroke="rgb(136,34,85)" stroke-width="1"/>
<line x1="421" y1="560" x2="437" y2="560" stroke="rgb(136,34,85)" stroke-width="1"/>
<line x1="437" y1="560" x2="453" y2="560" stroke="rgb(136,34,85)" stroke-width="1"/>
<line x1="453" y1="560" x2="469" y2="560" stroke="rgb(136,34,85)" stroke-width="1"/>
<line x1="469" y1="560" x2="485" y2="560" stroke="rgb(136,34,85)" stroke-width="1"/>
<line x1="485" y1="560" x2="501" y2="560" stroke="rgb(136,34,85)" stroke-width="1"/>
<line x1="501" y1="560" x2="517" y2="560" stroke="rgb(136,34,85)" stroke-width="1"/>
<line x1="517" y1="560" x2="533" y2="560" stroke="rgb(136,34,85)" stroke-width="1"/>
<line x1="533" y1="560" x2="549" y2="560" stroke="rgb(136,34,85)" stroke-width="1"/>
<line x1="549" y1="560" x2="565" y2="560" stroke="rgb(136,34,85)" stroke-width="1"/>
<line x1="565" y1="560" x2="581" y2="560" stroke="rgb(136,34,85)" stroke-width="1"/>
<line x1="581" y1="560" x2="597" y2="560" stroke="rgb(136,34,85)" stroke-width="1"/>
<line x1="597" y1="560" x2="613" y2="560" stroke="rgb(136,34,85)" stroke-width="1"/>
<line x1="613" y1="560" x2="629" y2="560" stroke="rgb(136,34,85)" stroke-width="1"/>
<line x1="629" y1="560" x2="645" y2="560" stroke="rgb(136,34,85)" stroke-width="1"/>
<line x1="645" y1="560" x2="661" y2="560" stroke="rgb(136,34,85)" stroke-width="1"/>
<line x1="661" y1="560" x2="677" y2="557" stroke="rgb(136,34,85)" stroke-width="1"/>
<line x1="677" y1="557" x2="693" y2="545" stroke="rgb(136,34,85)" stroke-width="1"/>
<line x1="693" y1="545" x2="709" y2="500" stroke="rgb(136,34,85)" stroke-width="1"/>
<line x1="709" y1="500" x2="725" y2="368" stroke="rgb(136,34,85)" stroke-width="1"/>
<line x1="725" y1="368" x2="741" y2="40" stroke="rgb(136,34,85)" stroke-width="1"/>
<line x1="741" y1="40" x2="757" y2="560" stroke="rgb(136,34,85)" stroke-width="1"/>
<rect width="130" height="23" x="660" y="40" style="fill:rgb(255,255,255);stroke:none"/>
<rect width="130" height="23" x="660" y="40" rx="0" ry="0" style="fill:none;stroke-width:1;stroke:rgb(192,192,192)"/>
<text x="663" y="55" fill="rgb(136,34,85)" font-family="Arial" font-size="12" font-weight="bold">Sequence Length</text>
</svg>
